<?xml version="1.0" standalone="no"?>
<!DOCTYPE svg PUBLIC "-//W3C//DTD SVG 20010904//EN"
 "http://www.w3.org/TR/2001/REC-SVG-20010904/DTD/svg10.dtd">
<svg version="1.0" xmlns="http://www.w3.org/2000/svg"
 width="400.000000pt" height="400.000000pt" viewBox="0 0 400.000000 400.000000"
 preserveAspectRatio="xMidYMid meet">
<metadata>
Created by potrace 1.11, written by Peter Selinger 2001-2013
</metadata>
<g transform="translate(0.000000,400.000000) scale(0.100000,-0.100000)"
fill="#000000" stroke="none">
<path d="M980 2725 l0 -295 135 0 135 0 0 295 0 295 -135 0 -135 0 0 -295z"/>
<path d="M1870 2375 l0 -645 135 0 135 0 0 645 0 645 -135 0 -135 0 0 -645z"/>
<path d="M2750 2725 l0 -295 135 0 135 0 0 295 0 295 -135 0 -135 0 0 -295z"/>
<path d="M792 1616 l-92 -94 53 -51 c251 -240 592 -406 957 -468 172 -28 493
-23 655 12 11 2 23 5 27 5 10 2 167 47 203 58 112 35 286 122 415 208 111 73
143 98 227 178 l62 59 -93 93 -94 94 -43 -41 c-176 -166 -432 -308 -664 -368
-188 -49 -453 -64 -635 -36 -178 28 -416 107 -512 170 -21 14 -41 25 -45 25
-18 0 -212 144 -282 209 -24 23 -44 41 -45 41 0 -1 -43 -43 -94 -94z"/>
</g>
</svg>
